<?xml version="1.0"?>
<svg xmlns="http://www.w3.org/2000/svg" xmlns:xlink="http://www.w3.org/1999/xlink" xmlns:svgjs="http://svgjs.com/svgjs" version="1.1" width="512" height="512" x="0" y="0" viewBox="0 0 512 512" style="enable-background:new 0 0 512 512" xml:space="preserve" class=""><g><g xmlns="http://www.w3.org/2000/svg"><g><path d="m376.18 136.614c0-4.142-3.357-7.5-7.5-7.5h-286.719c-4.143 0-7.5 3.358-7.5 7.5s3.357 7.5 7.5 7.5h286.719c4.143 0 7.5-3.358 7.5-7.5z" fill="#333533" data-original="#000000" style="" class=""/><path d="m306.26 205.151c0-4.142-3.357-7.5-7.5-7.5h-216.799c-4.143 0-7.5 3.358-7.5 7.5s3.357 7.5 7.5 7.5h216.799c4.143 0 7.5-3.358 7.5-7.5z" fill="#333533" data-original="#000000" style="" class=""/><path d="m81.961 266.188c-4.143 0-7.5 3.358-7.5 7.5s3.357 7.5 7.5 7.5h159.55c4.143 0 7.5-3.358 7.5-7.5s-3.357-7.5-7.5-7.5z" fill="#333533" data-original="#000000" style="" class=""/><path d="m504.308 97.284-10.158-10.158c-10.234-10.232-26.882-10.231-37.116 0-12.35 12.35-133.729 133.73-163.572 163.573-.002.002-.003.003-.005.005-.003.003-.006.007-.009.01-5.777 5.778-10.357 12.507-13.614 20.001l-14.904 34.29c-5.909 13.59 7.912 27.401 21.499 21.499l34.289-14.905c7.497-3.259 14.23-7.842 20.013-13.623 29.468-29.468 151.298-151.3 163.576-163.578 10.256-10.256 10.258-26.856.001-37.114zm-189.569 200.559-34.29 14.905c-1.128.489-2.258-.627-1.764-1.763l14.904-34.291c1.499-3.448 3.369-6.68 5.576-9.676l25.249 25.249c-2.996 2.208-6.228 4.078-9.675 5.576zm20.688-15.776-26.06-26.06 110.824-110.825 26.06 26.06zm121.431-121.432-26.06-26.06 10.935-10.935 26.06 26.059zm36.842-36.843-15.3 15.301-26.06-26.059 15.301-15.301c4.383-4.384 11.518-4.384 15.901 0l10.158 10.158c4.396 4.395 4.396 11.506 0 15.901z" fill="#333533" data-original="#000000" style="" class=""/><path d="m443.14 215.923c-4.143 0-7.5 3.358-7.5 7.5v91.181c0 24.658-20.06 44.718-44.718 44.718h-226.176c-6.286 0-12.259 2.384-16.815 6.711l-80.621 76.531 11.863-65.879c1.629-9.034-5.313-17.363-14.514-17.363h-4.94c-24.659 0-44.719-20.06-44.719-44.718v-203.836c0-24.658 20.06-44.719 44.718-44.719h331.204c13.138 0 25.558 5.746 34.08 15.763 2.683 3.154 7.416 3.537 10.572.854 3.155-2.684 3.537-7.417.854-10.572-11.376-13.374-27.962-21.045-45.505-21.045h-331.205c-32.928 0-59.718 26.79-59.718 59.719v203.836c0 32.929 26.79 59.718 59.718 59.718h4.64l-12.811 71.142c-1.011 5.609 1.681 11.196 6.696 13.903 5.075 2.74 11.216 1.84 15.297-2.035l84.719-80.42c1.759-1.67 4.062-2.589 6.488-2.589h226.176c32.928 0 59.718-26.789 59.718-59.718v-91.181c-.001-4.143-3.358-7.501-7.501-7.501z" fill="#333533" data-original="#000000" style="" class=""/></g></g></g></svg>
